<svg width="200" height="210" viewBox="0 0 236 193" fill="none" xmlns="http://www.w3.org/2000/svg">
  <circle cx="112.794" cy="107.588" r="71.147" fill="#EBF8E8"/>
  <circle cx="112.794" cy="107.588" r="52.0588" fill="#C5EBBA"/>
  <path opacity="0.99" d="M106.68 120.612C106.272 120.612 105.867 120.53 105.49 120.37C105.113 120.21 104.77 119.976 104.482 119.68L95.7376 110.732C95.1607 110.134 94.8383 109.327 94.8408 108.487C94.8434 107.647 95.1707 106.842 95.7513 106.248C96.3319 105.654 97.1186 105.319 97.9397 105.316C98.7608 105.313 99.5496 105.643 100.134 106.234L106.68 112.932L123.719 95.4965C124.303 94.9062 125.092 94.5763 125.913 94.579C126.734 94.5817 127.521 94.9166 128.102 95.5107C128.682 96.1048 129.01 96.9099 129.012 97.7501C129.015 98.5902 128.692 99.3974 128.115 99.9952L108.878 119.68C108.59 119.976 108.247 120.21 107.87 120.37C107.493 120.53 107.088 120.612 106.68 120.612Z" fill="white"/>
  <path d="M111.926 75.7745C105.777 75.7745 99.7662 77.6404 94.6533 81.1361C89.5405 84.6319 85.5555 89.6005 83.2023 95.4137C80.8492 101.227 80.2335 107.624 81.4331 113.795C82.6327 119.966 85.5938 125.635 89.942 130.084C94.2901 134.533 99.8299 137.563 105.861 138.791C111.892 140.018 118.143 139.388 123.824 136.98C129.505 134.572 134.361 130.495 137.777 125.263C141.194 120.031 143.017 113.88 143.017 107.588C143.008 99.1537 139.729 91.0674 133.9 85.1032C128.072 79.1391 120.169 75.7842 111.926 75.7745V75.7745ZM128.115 99.9952L108.878 119.68C108.589 119.975 108.247 120.21 107.869 120.37C107.492 120.53 107.088 120.612 106.68 120.612C106.271 120.612 105.867 120.53 105.49 120.37C105.113 120.21 104.77 119.975 104.482 119.68L95.7375 110.732C95.1605 110.135 94.8381 109.327 94.8407 108.487C94.8433 107.647 95.1706 106.842 95.7512 106.248C96.3318 105.654 97.1185 105.319 97.9396 105.316C98.7607 105.314 99.5494 105.643 100.134 106.234L106.68 112.932L123.719 95.4966C124.303 94.9062 125.092 94.5764 125.913 94.579C126.734 94.5817 127.521 94.9166 128.102 95.5108C128.682 96.1049 129.009 96.9099 129.012 97.7501C129.015 98.5903 128.692 99.3974 128.115 99.9952Z" fill="#53C330"/>
  <path d="M48.9913 13.4794L55.1265 7.34418" stroke="#B5B5B5" stroke-width="1.5" stroke-linecap="round"/>
  <path d="M48.9913 7.34418L55.1265 13.4794" stroke="#B5B5B5" stroke-width="1.5" stroke-linecap="round"/>
  <path d="M180.873 185.274L187.009 179.138" stroke="#B5B5B5" stroke-width="1.5" stroke-linecap="round"/>
  <path d="M180.873 179.138L187.009 185.274" stroke="#B5B5B5" stroke-width="1.5" stroke-linecap="round"/>
  <path d="M22.5587 179.892C21.4147 179.892 20.2964 180.231 19.3451 180.867C18.3939 181.502 17.6525 182.406 17.2147 183.463C16.7769 184.52 16.6624 185.683 16.8856 186.805C17.1087 187.927 17.6597 188.957 18.4686 189.766C19.2776 190.575 20.3082 191.126 21.4303 191.349C22.5523 191.573 23.7153 191.458 24.7723 191.02C25.8292 190.582 26.7326 189.841 27.3682 188.89C28.0038 187.939 28.343 186.82 28.343 185.676C28.343 184.917 28.1934 184.165 27.9027 183.463C27.612 182.761 27.186 182.123 26.6489 181.586C26.1117 181.049 25.4741 180.623 24.7723 180.332C24.0705 180.042 23.3183 179.892 22.5587 179.892V179.892ZM22.5587 190.304C21.6435 190.304 20.7488 190.032 19.9879 189.524C19.2269 189.015 18.6338 188.293 18.2835 187.447C17.9333 186.602 17.8416 185.671 18.0202 184.774C18.1987 183.876 18.6395 183.051 19.2866 182.404C19.9338 181.757 20.7583 181.316 21.656 181.138C22.5536 180.959 23.484 181.051 24.3296 181.401C25.1751 181.751 25.8978 182.344 26.4063 183.105C26.9148 183.866 27.1862 184.761 27.1862 185.676C27.1862 186.904 26.6986 188.081 25.8308 188.948C24.963 189.816 23.786 190.304 22.5587 190.304V190.304Z" fill="#B5B5B5"/>
  <path d="M229.059 96.598C227.915 96.598 226.796 96.9373 225.845 97.5729C224.894 98.2084 224.153 99.1118 223.715 100.169C223.277 101.226 223.162 102.389 223.386 103.511C223.609 104.633 224.16 105.664 224.969 106.472C225.778 107.281 226.808 107.832 227.93 108.056C229.052 108.279 230.215 108.164 231.272 107.726C232.329 107.289 233.233 106.547 233.868 105.596C234.504 104.645 234.843 103.526 234.843 102.382C234.843 101.623 234.693 100.871 234.403 100.169C234.112 99.467 233.686 98.8293 233.149 98.2922C232.612 97.7551 231.974 97.329 231.272 97.0383C230.571 96.7476 229.818 96.598 229.059 96.598V96.598ZM229.059 107.01C228.144 107.01 227.249 106.738 226.488 106.23C225.727 105.721 225.134 104.999 224.784 104.153C224.433 103.308 224.342 102.377 224.52 101.48C224.699 100.582 225.139 99.7574 225.787 99.1102C226.434 98.4631 227.258 98.0224 228.156 97.8438C229.054 97.6652 229.984 97.7569 230.83 98.1071C231.675 98.4574 232.398 99.0505 232.906 99.8115C233.415 100.572 233.686 101.467 233.686 102.382C233.686 103.61 233.199 104.787 232.331 105.654C231.463 106.522 230.286 107.01 229.059 107.01V107.01Z" fill="#B5B5B5"/>
  <circle cx="4.33823" cy="84.1618" r="4.33823" fill="#53C330"/>
  <circle cx="188.28" cy="28.6324" r="4.33823" fill="#53C330"/>
</svg>
